<?xml version="1.0" standalone="no"?>
<!DOCTYPE svg PUBLIC "-//W3C//DTD SVG 20010904//EN"
 "http://www.w3.org/TR/2001/REC-SVG-20010904/DTD/svg10.dtd">
<svg version="1.0" xmlns="http://www.w3.org/2000/svg"
 width="398.000000pt" height="253.000000pt" viewBox="0 0 398.000000 253.000000"
 preserveAspectRatio="xMidYMid meet">

<g transform="translate(0.000000,253.000000) scale(0.100000,-0.100000)"
fill="#000000" stroke="none">
<path d="M543 2385 l-33 -34 0 -640 c0 -391 -4 -650 -10 -665 -9 -25 -13 -26
-84 -26 -64 0 -77 3 -86 19 -6 13 -10 144 -10 358 l0 339 -39 30 c-31 24 -49
30 -80 28 -44 -2 -95 -36 -105 -69 -3 -11 -6 -175 -6 -365 l1 -345 104 -104
c58 -58 105 -108 105 -113 0 -4 40 -8 90 -8 130 0 121 28 118 -395 -3 -330 -4
-347 -22 -361 -11 -8 -34 -14 -50 -15 -25 0 -27 -2 -11 -7 11 -4 108 -5 215
-2 l195 5 5 425 c3 234 9 431 13 438 6 8 36 12 94 12 l85 0 89 92 89 92 0 353
c0 345 0 353 -20 363 -12 6 -25 22 -30 36 -14 36 -53 32 -95 -11 l-35 -34 0
-370 c0 -426 9 -391 -104 -391 -54 0 -67 3 -76 19 -6 13 -10 239 -10 664 l0
644 -25 27 c-14 15 -25 31 -25 37 0 5 -46 9 -107 9 l-108 0 -32 -35z"/>
<path d="M3143 2383 l-33 -37 0 -467 c0 -535 6 -499 -89 -499 -101 0 -96 -20
-98 346 l-2 318 -37 33 c-53 47 -106 46 -152 -1 l-33 -34 0 -361 0 -361 88
-85 87 -85 106 0 c69 0 110 -4 118 -12 9 -9 12 -144 12 -545 0 -520 -1 -534
-20 -553 -11 -11 -32 -20 -47 -20 -19 -1 -23 -3 -13 -8 8 -4 104 -6 213 -4
l197 4 0 413 c0 245 4 424 10 439 9 25 12 26 96 26 l86 0 114 114 114 115 0
328 0 329 -34 37 c-29 32 -40 37 -78 37 -36 0 -51 -6 -81 -34 l-37 -34 0 -369
c0 -274 -3 -372 -12 -381 -14 -14 -136 -16 -158 -2 -13 8 -15 95 -18 666 l-3
657 -24 23 c-14 13 -25 28 -25 34 0 6 -39 10 -107 10 l-108 -1 -32 -36z"/>
<path d="M1713 2313 c-7 -2 -13 -9 -13 -15 0 -6 -9 -20 -20 -32 -21 -21 -21
-30 -21 -656 -1 -349 -4 -646 -8 -660 -9 -32 -67 -49 -106 -32 l-25 12 0 293
c0 291 0 294 -22 315 -13 11 -29 28 -36 36 -19 24 -59 20 -73 -6 -7 -13 -20
-29 -31 -36 -17 -12 -18 -33 -18 -318 l0 -304 90 -90 89 -89 56 1 c32 1 61 -4
68 -11 9 -9 13 -99 14 -349 1 -185 3 -343 3 -349 0 -10 29 -13 110 -13 l110 0
0 674 c0 414 4 685 10 700 9 25 12 26 95 26 l86 0 60 61 59 61 0 230 0 231
-26 23 c-31 29 -28 29 -64 2 l-30 -22 0 -211 c0 -255 2 -250 -95 -250 -54 0
-70 4 -81 20 -11 15 -14 82 -14 356 l0 336 -34 37 c-30 31 -41 36 -78 35 -24
0 -49 -3 -55 -6z"/>
<path d="M2370 1401 c0 -5 -9 -13 -20 -16 -19 -6 -20 -15 -20 -354 0 -390 3
-376 -71 -376 -21 0 -44 6 -51 13 -10 10 -13 69 -15 230 l-2 216 -26 19 c-26
19 -27 19 -61 1 l-34 -19 0 -208 0 -208 85 -85 c68 -67 91 -84 115 -84 58 0
60 -8 60 -270 0 -167 3 -241 11 -246 21 -13 101 -8 110 7 5 8 9 131 9 274 0
190 3 264 12 273 7 7 37 12 67 12 55 0 56 0 118 65 l63 66 0 199 0 199 -36 25
-37 25 -28 -27 -29 -27 0 -207 c0 -113 -3 -213 -6 -222 -8 -20 -62 -30 -97
-17 l-27 11 0 349 0 350 -29 20 c-30 22 -61 28 -61 12z"/>
</g>
</svg>
