<?xml version="1.0" standalone="no"?>
<!DOCTYPE svg PUBLIC "-//W3C//DTD SVG 20010904//EN"
 "http://www.w3.org/TR/2001/REC-SVG-20010904/DTD/svg10.dtd">
<svg version="1.0" xmlns="http://www.w3.org/2000/svg"
 width="384.000000pt" height="413.000000pt" viewBox="0 0 384.000000 413.000000"
 preserveAspectRatio="xMidYMid meet">

<g transform="translate(0.000000,413.000000) scale(0.100000,-0.100000)"
fill="#000000" stroke="none">
<path d="M2100 3950 l0 -90 -90 0 -90 0 0 -595 0 -595 -95 0 -95 0 0 -90 0
-90 -135 0 -135 0 0 -90 0 -90 -139 0 -140 0 2 -90 2 -90 -94 0 -93 0 3 -92 4
-93 -189 0 -189 0 2 93 2 92 -95 0 -96 0 0 90 0 90 -90 0 -90 0 0 180 0 180
-80 0 -80 0 0 -535 0 -535 90 0 90 0 0 -95 0 -95 90 0 90 0 0 -90 0 -90 93 0
92 0 -3 -46 c-2 -25 -1 -65 3 -90 l6 -44 85 0 84 0 2 -62 c1 -35 1 -75 0 -90
l-1 -28 90 0 89 0 0 -192 c1 -106 1 -270 2 -365 l1 -172 179 -3 178 -3 0 83 0
82 -97 0 -98 0 3 100 3 100 57 0 c31 0 74 3 94 6 l37 6 3 87 3 86 70 2 c39 1
78 2 88 3 15 0 17 11 17 90 l0 90 95 0 95 0 0 -95 0 -95 95 0 95 0 0 -270 0
-270 170 0 170 0 0 80 0 80 -85 0 -85 0 0 83 c0 45 -3 214 -7 375 l-6 292 92
0 91 0 0 90 0 90 95 0 95 0 0 135 0 135 90 0 90 0 0 325 0 325 100 0 100 0 0
-95 0 -95 85 0 85 0 0 175 0 175 -185 0 -185 0 0 190 0 190 365 0 365 0 0 85
0 85 -275 0 -275 0 0 100 0 100 458 0 457 0 0 400 0 399 -90 3 -90 3 0 85 0
85 -722 3 -723 2 0 -90z m368 -265 l-2 -95 -101 0 -101 0 0 95 1 95 103 0 103
0 -3 -95z"/>
</g>
</svg>
